<?xml version="1.0" encoding="UTF-8"?>
<svg id="Layer_1" data-name="Layer 1" xmlns="http://www.w3.org/2000/svg" viewBox="0 0 745.85 587.8">
  <defs>
    <style>
      .cls-1, .cls-2, .cls-3 {
        fill: #fff;
      }

      .cls-2 {
        font-family: PlayfairDisplay-Regular, 'Playfair Display';
        font-size: 150.47px;
        font-variation-settings: 'wght' 400;
      }

      .cls-4 {
        letter-spacing: -.03em;
      }

      .cls-3 {
        font-family: Poppins-SemiBold, Poppins;
        font-size: 42.21px;
        font-weight: 600;
        letter-spacing: .38em;
      }
    </style>
  </defs>
  <text class="cls-2" transform="translate(7.75 517.37)"><tspan x="0" y="0">TG</tspan><tspan class="cls-4" x="199.21" y="0"> </tspan><tspan x="231.56" y="0">VILLAS</tspan></text>
  <text class="cls-3" transform="translate(12.12 579.54)"><tspan x="0" y="0">PARADISE OF CYPRUS</tspan></text>
  <path class="cls-1" d="M443.14,70.28c-.78,8.15-1.31,16.06-1.6,23.73-.29,7.67-.44,13.54-.44,17.61,0,4.47.1,8.73.29,12.81.19,4.08.39,7.57.58,10.48h-6.7c-1.94-14.56-4.51-26.01-7.72-34.36-3.2-8.34-7.82-14.36-13.83-18.05-6.02-3.68-14.66-5.53-25.91-5.53h-12.52v165.96c0,7.77.73,13.59,2.18,17.47,1.46,3.89,4.37,6.46,8.73,7.72,4.37,1.27,10.72,2.09,19.07,2.47v5.82c-5.44-.39-12.42-.63-20.96-.73-8.54-.1-17.28-.15-26.2-.15s-18.1.05-26.35.15c-8.25.1-14.9.34-19.94.73v-5.82c8.34-.39,14.65-1.21,18.93-2.47,4.27-1.26,7.18-3.83,8.73-7.72,1.55-3.88,2.33-9.7,2.33-17.47V76.97h-12.81c-10.87,0-19.41,1.85-25.62,5.53-6.21,3.69-10.87,9.71-13.98,18.05-3.11,8.35-5.63,19.8-7.57,34.36h-6.7c.39-2.91.63-6.41.73-10.48.1-4.08.15-8.34.15-12.81,0-4.08-.15-9.94-.44-17.61-.29-7.67-.83-15.58-1.6-23.73,8.34.2,17.47.39,27.37.58,9.9.2,19.89.29,29.99.29h54.45c9.9,0,19.89-.1,29.99-.29,10.09-.19,19.22-.39,27.37-.58Z"/>
  <path class="cls-1" d="M462.02,250.76c-3.99.14-8.42.2-13.29.2-3.11,0-6.6-.03-10.45-.1s-7.54-.13-11.07-.2c-3.51-.07-6.56-.17-9.13-.31v4.06c5.69.14,10.02.72,13,1.73,2.97,1.01,4.97,2.91,5.99,5.68,1.01,2.77,1.52,7.07,1.52,12.89v19.68c0,2.58-.34,4.64-1.01,6.2-.68,1.56-2.17,3.15-4.47,4.76-1.9,1.22-4.43,2.44-7.61,3.66-3.18,1.22-6.94,1.83-11.27,1.83-15.16,0-26.49-5.66-34-16.96-2.42-3.64-4.45-7.95-6.09-12.95-5.32-.03-10.71-.04-16.14-.04-2.28,0-4.55,0-6.78,0,.06.14.13.27.19.4,5.35,10.9,13.16,19.22,23.45,24.97,10.28,5.75,22.66,8.63,37.15,8.63,6.49,0,12.31-.99,17.46-2.95,5.14-1.96,10.08-4.56,14.82-7.81,2.44-1.63,4.16-2.64,5.17-3.04,1.02-.41,2-.61,2.95-.61,1.76,0,3.08,1.35,3.96,4.06.88,2.7,1.39,5.21,1.52,7.51h4.06v-40.2c0-5,.24-8.72.71-11.16s1.42-4.06,2.84-4.87c1.42-.81,3.56-1.28,6.4-1.42v-4.06c-2.58.13-5.86.27-9.85.4ZM394.12,174.94c5.41-3.45,11.63-5.17,18.67-5.17,6.09,0,12.08,1.22,17.97,3.65,5.88,2.44,10.65,5.82,14.31,10.15,3.78,3.92,6.46,8.66,8.02,14.21,1.56,5.55,2.81,11.56,3.76,18.07h4.67c0-12.04.07-21.69.2-28.93.14-7.24.34-13.43.61-18.57h-4.67c-.81,8.26-2.51,12.39-5.08,12.39-.94,0-2.3-.67-4.06-2.03-4.61-3.52-9.68-6.6-15.23-9.24-5.55-2.64-12.79-3.96-21.72-3.96-11.3,0-21.5,2.29-30.59,6.86v16.35c3.61-5.91,7.99-10.5,13.14-13.78Z"/>
  <path class="cls-1" d="M552.67,190.59c.84,71.3-44.73,139.7-110.66,166.8-118.93,50.14-251.39-37.63-251.33-166.8-.07-129.19,132.4-216.97,251.34-166.81,65.92,27.11,111.49,95.51,110.65,166.81h0ZM552.67,190.59c.76-71.1-45.11-139.32-111.26-165.35-116.96-47.69-245.9,39.1-245.74,165.35-.18,126.27,128.77,213.07,245.74,165.36,66.14-26.04,112.02-94.26,111.25-165.36h0Z"/>
</svg>