<?xml version="1.0" ?><svg xmlns="http://www.w3.org/2000/svg" xmlns:xlink="http://www.w3.org/1999/xlink" version="1.1" viewBox="0 0 512 512" style="enable-background:new 0 0 512 512;" xml:space="preserve"><g id="_x32_1_x2C__sink_x2C__bathroom_x2C__plumbing_x2C__washbasin_x2C__basin"><g><path style="fill:#3A98FF;" d="M125.47,166.071c-19.355,0-35.103,15.747-35.103,35.102v15.061c0,5.522,4.478,10,10,10    c5.522,0,10-4.478,10-10v-15.061c0-8.327,6.775-15.102,15.103-15.102c8.327,0,15.102,6.775,15.102,15.102v15.061    c0,5.522,4.478,10,10,10c5.523,0,10-4.478,10-10v-15.061C160.571,181.818,144.825,166.071,125.47,166.071z"/><path style="fill:#3A98FF;" d="M386.53,166.071c-19.355,0-35.102,15.747-35.102,35.102v15.061c0,5.522,4.478,10,10,10    c5.522,0,10-4.478,10-10v-15.061c0-8.327,6.774-15.102,15.102-15.102c8.327,0,15.103,6.775,15.103,15.102v15.061    c0,5.522,4.478,10,10,10c5.522,0,10-4.478,10-10v-15.061C421.633,181.818,405.886,166.071,386.53,166.071z"/><path style="fill:#3A98FF;" d="M371.429,105.786v-7.531c0-40.117-32.638-72.755-72.756-72.755    c-40.117,0-72.755,32.638-72.755,72.755v67.775c0,5.522,4.477,10,10,10c5.522,0,10-4.478,10-10V98.255    c0-29.089,23.666-52.755,52.756-52.755c29.089,0,52.755,23.666,52.755,52.755v7.531c0,5.559-4.522,10.081-10.082,10.081    c-5.559,0-10.081-4.522-10.081-10.081v-7.531c0-17.971-14.621-32.592-32.592-32.592c-17.972,0-32.593,14.621-32.593,32.592v67.775    c0,5.522,4.478,10,10,10c5.522,0,10-4.478,10-10V98.255c0-6.943,5.649-12.592,12.593-12.592c6.943,0,12.592,5.648,12.592,12.592    v7.531c0,16.587,13.494,30.081,30.081,30.081C357.934,135.867,371.429,122.373,371.429,105.786z"/><path style="fill:#283954;" d="M481.517,276.439H501c5.522,0,10-4.478,10-10v-50.204c0-5.523-4.478-10-10-10H321.225v-20.122    c0-16.587-13.495-30.082-30.082-30.082h-70.285c-16.587,0-30.082,13.495-30.082,30.082v20.122H11c-5.523,0-10,4.477-10,10v50.204    c0,5.522,4.477,10,10,10h19.482c3.292,46.602,29.402,87.003,67.203,110.061H11c-5.523,0-10,4.478-10,10v80c0,5.522,4.477,10,10,10    h490c5.522,0,10-4.478,10-10v-80c0-5.522-4.478-10-10-10h-86.685C452.115,363.441,478.224,323.04,481.517,276.439z     M210.775,186.112c0-5.56,4.523-10.082,10.082-10.082h70.285c5.559,0,10.082,4.522,10.082,10.082v20.122h-90.449V186.112z     M21,226.234c24.652,0,454.69,0,470,0v30.204c-25.219,0-450.939,0-470,0V226.234z M491,406.5v60H21v-60    C345.066,406.516,14.575,407.578,491,406.5z M351.941,386.5H160.058c-58.224-5.095-104.715-51.758-109.525-110.061h410.933    C456.656,334.742,410.165,381.405,351.941,386.5z"/></g></g><g id="Layer_1"/></svg>