<?xml version="1.0" ?><svg xmlns="http://www.w3.org/2000/svg" xmlns:xlink="http://www.w3.org/1999/xlink" version="1.1" viewBox="0 0 512 512" style="enable-background:new 0 0 512 512;" xml:space="preserve"><g id="_x32_6_x2C__bed_x2C__bedroom_x2C__rest_x2C__double_bed_x2C__beds"><g><path style="fill:#3A98FF;" d="M201,176h-80c-22.056,0-40,17.944-40,40v40c0,5.522,4.477,10,10,10c5.522,0,10-4.478,10-10v-40    c0-11.028,8.972-20,20-20h80c11.028,0,20,8.972,20,20v40c0,5.522,4.477,10,10,10s10-4.478,10-10v-40    C241,193.944,223.056,176,201,176z"/><path style="fill:#3A98FF;" d="M391,176h-80c-22.056,0-40,17.944-40,40v40c0,5.522,4.478,10,10,10s10-4.478,10-10v-40    c0-11.028,8.972-20,20-20h80c11.028,0,20,8.972,20,20v40c0,5.522,4.478,10,10,10s10-4.478,10-10v-40    C431,193.944,413.056,176,391,176z"/><path style="fill:#283954;" d="M481,247.266V86c0-22.056-17.944-40-40-40H71c-22.056,0-40,17.944-40,40v161.266    C13.767,251.718,1,267.396,1,286c0,6.223,0,117.395,0,130c0,5.522,4.477,10,10,10h20v30c0,5.522,4.477,10,10,10h40    c4.589,0,8.589-3.123,9.701-7.574L98.808,426h314.385l8.106,32.426c1.112,4.451,5.112,7.574,9.701,7.574h40    c5.522,0,10-4.478,10-10v-30h20c5.522,0,10-4.478,10-10c0-19.098,0-119.298,0-130C511,267.396,498.233,251.718,481,247.266z     M51,246V146h410v100H51z M196,126V66h120v60H196z M461,86v40H336V66h105C452.028,66,461,74.972,461,86z M71,66h105v60H51V86    C51,74.972,59.972,66,71,66z M21,286c0-11.028,8.972-20,20-20h430c11.028,0,20,8.972,20,20v70H21V286z M73.192,446H51v-20h27.192    L73.192,446z M461,446h-22.192l-5-20H461V446z M491,406c-35.072,0-451.289,0-470,0v-30h470V406z"/></g></g><g id="Layer_1"/></svg>