<?xml version="1.0" ?><svg xmlns="http://www.w3.org/2000/svg" xmlns:xlink="http://www.w3.org/1999/xlink" version="1.1" viewBox="0 0 512 512" style="enable-background:new 0 0 512 512;" xml:space="preserve"><g id="_x33_7_x2C__tray_x2C__room_service_x2C__food_tray_x2C__hotel_service_x2C__food_and_restaurant"><g><path style="fill:#3A98FF;" d="M218.5,270.833h-10v-30c0-5.522-4.477-10-10-10H166c-5.523,0-10,4.478-10,10    c0,5.523,4.477,10,10,10h22.5v20h-10c-5.523,0-10,4.477-10,10v80c0,5.522,4.477,10,10,10s10-4.478,10-10v-70h20v70    c0,5.522,4.477,10,10,10s10-4.478,10-10v-80C228.5,275.31,224.023,270.833,218.5,270.833z"/><path style="fill:#3A98FF;" d="M313.5,360.833v-80c0-5.523-4.478-10-10-10h-10v-20H316c5.522,0,10-4.477,10-10    c0-5.522-4.478-10-10-10h-32.5c-5.522,0-10,4.478-10,10v30h-10c-5.522,0-10,4.477-10,10v80c0,5.522,4.478,10,10,10s10-4.478,10-10    v-70h20v70c0,5.522,4.478,10,10,10S313.5,366.355,313.5,360.833z"/><path style="fill:#3A98FF;" d="M296.43,91.731c0.492,5.443,5.295,9.559,10.858,9.062c5.501-0.497,9.558-5.358,9.062-10.858    c-3.174-35.158-30.374-63.468-65.35-68.102V11.167c0-5.523-4.477-10-10-10s-10,4.477-10,10v10.666    c-34.991,4.635-62.177,32.958-65.35,68.102c-0.496,5.5,3.561,10.361,9.061,10.858c5.492,0.499,10.362-3.56,10.858-9.062    c2.602-28.828,26.431-50.568,55.43-50.568S293.828,62.903,296.43,91.731z"/><path style="fill:#283954;" d="M320.17,420.83H161.83c-5.522,0-10,4.477-10,10c0,5.522,4.478,10,10,10h158.34    c5.523,0,10-4.478,10-10C330.17,425.308,325.692,420.83,320.17,420.83z"/><path style="fill:#283954;" d="M486,50.833h-10c-22.056,0-40,17.944-40,40v30H336v-30c0-5.522-4.478-10-10-10H156    c-5.523,0-10,4.478-10,10v30H36c-5.522,0-10,4.478-10,10v70c0,5.523,4.478,10,10,10h20V350.83H26c-5.522,0-10,4.477-10,10v70    c0,5.522,4.478,10,10,10h44.17c5.522,0,10-4.478,10-10c0-5.523-4.478-10-10-10H36v-50c27.641,0.001,391.685,0,410,0v50h-34.17    c-5.523,0-10,4.477-10,10c0,5.522,4.477,10,10,10H456c5.522,0,10-4.478,10-10v-70c0-5.523-4.478-10-10-10h-30V210.833h20    c5.522,0,10-4.477,10-10c0-21.834,0-86.152,0-110c0-11.028,8.972-20,20-20h10c5.522,0,10-4.478,10-10S491.522,50.833,486,50.833z     M46,190.833v-50c38.425,0,352.125,0,390,0v50C362.384,190.833,417.128,190.833,46,190.833z M346,210.833V350.83H136V210.833H346z     M166,100.833h150v20H166V100.833z M76,210.833h40V350.83H76V210.833z M406,350.83h-40V210.833h40V350.83z"/><path style="fill:#3A98FF;" d="M116,390.833c-33.084,0-60,26.916-60,60s26.916,60,60,60s60-26.916,60-60    S149.084,390.833,116,390.833z M116,490.833c-22.056,0-40-17.944-40-40s17.944-40,40-40s40,17.944,40,40    S138.056,490.833,116,490.833z"/><path style="fill:#3A98FF;" d="M366,390.833c-33.084,0-60,26.916-60,60s26.916,60,60,60s60-26.916,60-60    S399.084,390.833,366,390.833z M366,490.833c-22.056,0-40-17.944-40-40s17.944-40,40-40s40,17.944,40,40    S388.056,490.833,366,490.833z"/><circle style="fill:#3A98FF;" cx="116" cy="450.832" r="10"/><circle style="fill:#3A98FF;" cx="366" cy="450.832" r="10"/></g></g><g id="Layer_1"/></svg>