<?xml version="1.0" ?><svg xmlns="http://www.w3.org/2000/svg" xmlns:xlink="http://www.w3.org/1999/xlink" version="1.1" viewBox="0 0 512 512" style="enable-background:new 0 0 512 512;" xml:space="preserve"><g id="_x31_7_x2C__heater_x2C__water_heater_x2C__electric_heater_x2C__automation_x2C__furniture_and_household"><g><path style="fill:#3A98FF;" d="M451,121h-40c-5.522,0-10,4.478-10,10c0,5.523,4.478,10,10,10h30v90h-30c-5.522,0-10,4.477-10,10    s4.478,10,10,10h40c5.522,0,10-4.477,10-10V131C461,125.478,456.522,121,451,121z"/><path style="fill:#3A98FF;" d="M236,131c-74.439,0-135,60.561-135,135v195c0,5.522,4.478,10,10,10s10-4.478,10-10V266    c0-63.411,51.589-115,115-115s115,51.589,115,115v195c0,5.522,4.478,10,10,10s10-4.478,10-10V266C371,191.561,310.44,131,236,131z    "/><path style="fill:#3A98FF;" d="M236,191c-33.084,0-60,26.916-60,60s26.916,60,60,60s60-26.916,60-60S269.084,191,236,191z     M236,291c-22.056,0-40-17.944-40-40c0-18.604,12.767-34.282,30-38.734V231c0,5.523,4.477,10,10,10s10-4.477,10-10v-18.734    c17.233,4.452,30,20.13,30,38.734C276,273.056,258.056,291,236,291z"/><path style="fill:#283954;" d="M411,1H61c-5.522,0-10,4.477-10,10v450c0,5.522,4.478,10,10,10h20v30c0,5.522,4.478,10,10,10h60    c5.523,0,10-4.478,10-10v-30h150v30c0,5.522,4.478,10,10,10h60c5.522,0,10-4.478,10-10v-30h20c5.522,0,10-4.478,10-10V11    C421,5.477,416.522,1,411,1z M141,491h-40v-20h40V491z M371,491h-40v-20h40V491z M401,451c-9.26,0-314.753,0-330,0V21h330V451z"/><path style="fill:#283954;" d="M291,111h70c5.522,0,10-4.478,10-10V61c0-5.522-4.478-10-10-10h-70c-5.522,0-10,4.478-10,10v40    C281,106.522,285.478,111,291,111z M301,71h50v20h-50V71z"/><path style="fill:#283954;" d="M111,111h70c5.523,0,10-4.478,10-10V61c0-5.522-4.477-10-10-10h-70c-5.522,0-10,4.478-10,10v40    C101,106.522,105.478,111,111,111z M121,71h50v20h-50V71z"/><path style="fill:#283954;" d="M141,391c0,16.542,13.458,30,30,30s30-13.458,30-30s-13.458-30-30-30S141,374.458,141,391z     M181,391c0,5.514-4.486,10-10,10s-10-4.486-10-10s4.486-10,10-10S181,385.486,181,391z"/><path style="fill:#283954;" d="M301,421c16.542,0,30-13.458,30-30s-13.458-30-30-30s-30,13.458-30,30S284.458,421,301,421z     M301,381c5.514,0,10,4.486,10,10s-4.486,10-10,10s-10-4.486-10-10S295.486,381,301,381z"/><path style="fill:#283954;" d="M231,401h10c5.523,0,10-4.478,10-10s-4.477-10-10-10h-10c-5.523,0-10,4.478-10,10    S225.477,401,231,401z"/></g></g><g id="Layer_1"/></svg>