<?xml version="1.0" ?><svg xmlns="http://www.w3.org/2000/svg" xmlns:xlink="http://www.w3.org/1999/xlink" version="1.1" viewBox="0 0 512 512" style="enable-background:new 0 0 512 512;" xml:space="preserve"><g id="_x33_6_x2C__terrace_x2C__patio_x2C__restaurant_x2C__sun_umbrella_x2C__chairs"><g><path style="fill:#3A98FF;" d="M176.528,169.944c4.938,2.47,10.945,0.468,13.416-4.473L256,33.36l66.056,132.111    c1.752,3.505,5.283,5.531,8.952,5.53c7.348,0,12.283-7.781,8.936-14.474l-75-150C263.25,3.14,259.788,1,256,1    c-3.788,0-7.25,2.14-8.944,5.528l-75,150C169.586,161.468,171.588,167.475,176.528,169.944z"/><path style="fill:#283954;" d="M501,161h-20c-22.056,0-40,17.944-40,40v120h-80c-22.056,0-40,17.944-40,40    c0,17.542,0,119.368,0,140c0,5.522,4.478,10,10,10h40c5.522,0,10-4.478,10-10V391h70v110c0,5.522,4.478,10,10,10h40    c5.522,0,10-4.478,10-10c0-11.796,0-310.866,0-330C511,165.477,506.522,161,501,161z M341,361c0-11.028,8.972-20,20-20h90    c5.522,0,10-4.478,10-10V201c0-11.028,8.972-20,20-20h10v190c-18.837,0-134.386,0-150,0V361z M361,491h-20V391h20V491z M491,491    h-20V391h20V491z"/><path style="fill:#283954;" d="M151,321H71V201c0-22.056-17.944-40-40-40H11c-5.523,0-10,4.477-10,10c0,18.968,0,318.23,0,330    c0,5.522,4.477,10,10,10h40c5.522,0,10-4.478,10-10V391h70v110c0,5.522,4.477,10,10,10h40c5.522,0,10-4.478,10-10    c0-20.629,0-122.434,0-140C191,338.944,173.056,321,151,321z M21,181h10c11.028,0,20,8.972,20,20v130c0,5.522,4.477,10,10,10h90    c11.028,0,20,8.972,20,20v10c-18.837,0-134.386,0-150,0V181z M41,491H21V391h20V491z M171,491h-20V391h20V491z"/><path style="fill:#283954;" d="M91,171h155v50c0,5.523,4.477,10,10,10c5.522,0,10-4.477,10-10v-50h155    c4.132,0,7.838-2.541,9.327-6.394c1.49-3.854,0.457-8.227-2.6-11.006l-165-150c-3.814-3.467-9.639-3.467-13.453,0l-165,150    c-3.058,2.779-4.091,7.152-2.601,11.006C83.162,168.459,86.868,171,91,171z M256,24.515L395.134,151H116.866L256,24.515z"/><path style="fill:#283954;" d="M291,451h-25V281c0-5.522-4.478-10-10-10c-5.523,0-10,4.478-10,10v170h-25c-5.523,0-10,4.478-10,10    v40c0,5.522,4.477,10,10,10h70c5.522,0,10-4.478,10-10v-40C301,455.478,296.522,451,291,451z M281,491h-50v-20h50V491z"/><path style="fill:#3A98FF;" d="M351,211H161c-38.598,0-70,31.402-70,70c0,5.522,4.477,10,10,10h310c5.522,0,10-4.478,10-10    C421,242.402,389.598,211,351,211z M112.005,271c4.646-22.794,24.85-40,48.995-40h190c24.146,0,44.35,17.206,48.995,40H112.005z"/></g></g><g id="Layer_1"/></svg>