<?xml version="1.0" ?><svg xmlns="http://www.w3.org/2000/svg" xmlns:xlink="http://www.w3.org/1999/xlink" version="1.1" viewBox="0 0 512 512" style="enable-background:new 0 0 512 512;" xml:space="preserve"><g id="_x33_2_x2C__towel_x2C__bath_x2C__towels_x2C__dry_x2C__amenities"><g><path style="fill:#3A98FF;" d="M451,421.165H181.367c-5.523,0-10,4.478-10,10c0,5.522,4.477,10,10,10H451c5.522,0,10-4.478,10-10    C461,425.643,456.522,421.165,451,421.165z"/><path style="fill:#3A98FF;" d="M451,371.165H181.367c-5.523,0-10,4.478-10,10c0,5.522,4.477,10,10,10H451c5.522,0,10-4.478,10-10    C461,375.643,456.522,371.165,451,371.165z"/><path style="fill:#3A98FF;" d="M171.367,331.165c0,5.522,4.477,10,10,10H451c5.522,0,10-4.478,10-10c0-5.522-4.478-10-10-10    H181.367C175.845,321.165,171.367,325.643,171.367,331.165z"/><path style="fill:#3A98FF;" d="M191.367,361.165c0-5.522-4.478-10-10-10H80.959c-5.522,0-10,4.478-10,10c0,5.522,4.478,10,10,10    h100.408C186.89,371.165,191.367,366.688,191.367,361.165z"/><path style="fill:#3A98FF;" d="M80.959,321.165h100.408c5.522,0,10-4.478,10-10c0-5.522-4.478-10-10-10H80.959    c-5.522,0-10,4.478-10,10C70.959,316.688,75.437,321.165,80.959,321.165z"/><path style="fill:#3A98FF;" d="M80.959,271.165h100.408c5.522,0,10-4.478,10-10c0-5.522-4.478-10-10-10H80.959    c-5.522,0-10,4.478-10,10C70.959,266.688,75.437,271.165,80.959,271.165z"/><path style="fill:#283954;" d="M480.959,60.998h-19.963v-0.043c0-22.122-17.998-40.119-40.12-40.119    c-13.282,0-276.035-0.001-289.713-0.001c-26.398,0-48.59,16.92-56.773,40.16H20.959v-19.83c0-5.522-4.478-10-10-10    c-5.522,0-10,4.478-10,10c0,30.916,0,68.841,0,100c0,5.523,4.477,10,10,10c5.522,0,10-4.477,10-10v-20h50v259.59    c0,22.123,17.999,40.122,40.123,40.122h60.288v30.169c0,22.122,17.998,40.119,40.12,40.119h209.386    c22.122,0,40.12-17.997,40.12-40.119V121.161h19.963c16.587,0,30.082-13.495,30.082-30.082S497.546,60.998,480.959,60.998z     M131.148,40.835c0.004,0,0.008,0,0.012,0h0.047c14.616,0.016,27.76,8.001,34.788,20.159H96.333    C103.486,48.603,116.547,40.841,131.148,40.835z M20.959,80.995c2.346,0,149.875,0,150.407,0c0,0.154,0.001,20.023,0.001,20.17    c-1.594,0-148.778,0-150.408,0V80.995z M111.082,400.877c-11.096,0-20.123-9.026-20.123-20.122v-259.59h80.408v279.712H111.082z     M440.996,451.046c0,11.094-9.026,20.119-20.12,20.119H211.49c-11.095,0-20.12-9.025-20.12-20.119    c0-13.442-0.003-357.189-0.003-370.007c0-14.694-5.338-28.983-15.455-40.203h244.964c11.094,0,20.12,9.025,20.12,20.119V451.046z     M480.959,101.161h-19.963V80.998h19.963c5.56,0,10.082,4.522,10.082,10.081C491.041,96.639,486.519,101.161,480.959,101.161z"/></g></g><g id="Layer_1"/></svg>