<svg xmlns="http://www.w3.org/2000/svg" width="30" height="30" fill="none"><path fill="#26180F" d="M28.352 27.274V11.432c-.022-.105-.015-.18-.12-.274h-.001l-3.244-2.86V4.864a2.103 2.103 0 0 0-2.1-2.101h-4.183L17.04 1.297a3.091 3.091 0 0 0-4.08 0L11.3 2.762H7.116c-1.158 0-2.1.942-2.1 2.1V8.3l-3.235 2.85a.386.386 0 0 0-.133.276v15.85a2.206 2.206 0 0 0 2.198 2.197h22.308a2.205 2.205 0 0 0 2.198-2.198Zm-.715-15.057v15.057c0 .25-.068.482-.177.69l-8.943-7.71 9.12-8.037Zm-.183-.792-2.467 2.174V9.251l2.467 2.174Zm-14.02-9.592a2.376 2.376 0 0 1 3.135 0l1.054.929H12.38l1.055-.93ZM7.116 3.476h15.77c.765 0 1.387.622 1.387 1.387v9.366l-6.303 5.553-1.233-1.063a2.626 2.626 0 0 0-3.47-.003l-1.237 1.066-6.3-5.552V4.863c0-.765.621-1.387 1.386-1.387ZM2.54 27.963a1.464 1.464 0 0 1-.178-.689V12.216l9.12 8.037-8.942 7.71ZM5.015 9.251v4.35l-2.468-2.175L5.015 9.25ZM3.846 28.757c-.471 0-.805-.245-.833-.257l10.723-9.246a1.914 1.914 0 0 1 2.531.003l10.72 9.243a1.554 1.554 0 0 1-.833.257H3.846Z"/><path fill="#26180F" d="M7.954 7.3h14.095a.357.357 0 1 0 0-.715H7.954a.357.357 0 1 0 0 .715Zm0 3.652h14.095a.357.357 0 1 0 0-.715H7.954a.357.357 0 1 0 0 .715Zm0 3.652h9.81a.357.357 0 1 0 0-.714h-9.81a.357.357 0 1 0 0 .714Z"/></svg>