<svg xmlns="http://www.w3.org/2000/svg" width="30" height="30" fill="none"><g clip-path="url(#a)"><path fill="#26180F" d="M7.854 22.146c4.174 4.175 9.113 7.004 13.554 7.765.244.062.495.091.747.088 1.356 0 3.345-.717 6.04-2.175a2.92 2.92 0 0 0 1.44-1.741l.218-.692a2.97 2.97 0 0 0-.919-3.205l-3.366-2.868a3 3 0 0 0-3.755-.123l-1.6 1.192a2.276 2.276 0 0 1-2.736.02 25.082 25.082 0 0 1-7.895-7.9 2.276 2.276 0 0 1 .03-2.72l1.193-1.6a3 3 0 0 0-.123-3.755L7.814 1.066a2.97 2.97 0 0 0-3.205-.92l-.692.22a2.921 2.921 0 0 0-1.74 1.44C.422 5.045-.26 7.265.088 8.591c.76 4.44 3.59 9.38 7.765 13.554Zm14.38-2.387a2.3 2.3 0 0 1 2.878.095l3.367 2.867a2.277 2.277 0 0 1 .704 2.457l-.22.692a2.36 2.36 0 0 1-.304.633 48.862 48.862 0 0 1-7.13-6.22l.704-.524ZM4.13 1.037l.692-.22a2.4 2.4 0 0 1 .715-.111 2.276 2.276 0 0 1 1.742.816l2.867 3.367a2.3 2.3 0 0 1 .095 2.879l-.524.703a48.869 48.869 0 0 1-6.22-7.129 2.36 2.36 0 0 1 .633-.305ZM2.795 2.14c.056-.106.12-.207.192-.303a49.549 49.549 0 0 0 6.307 7.201l-.245.33a2.968 2.968 0 0 0-.046 3.537 25.79 25.79 0 0 0 8.092 8.092 2.97 2.97 0 0 0 3.537-.046l.33-.245a49.546 49.546 0 0 0 7.201 6.307 2.53 2.53 0 0 1-.303.192c-3.046 1.648-5.16 2.329-6.285 2.023a.343.343 0 0 0-.033-.007C12.588 27.696 2.304 17.41.779 8.458a.337.337 0 0 0-.007-.033C.466 7.3 1.147 5.185 2.795 2.14Zm14.46 11.467a.351.351 0 0 0 .336.103l3.342-.774A6.686 6.686 0 1 0 25.263.293a6.686 6.686 0 0 0-7.304 10.4l-.784 2.572a.351.351 0 0 0 .08.342Zm.335-8.665a5.983 5.983 0 1 1 3.5 7.3.352.352 0 0 0-.21-.016l-2.855.661.66-2.162a.352.352 0 0 0-.06-.32 5.988 5.988 0 0 1-1.035-5.463Zm2.214 1.79a.352.352 0 0 1 .352-.351h4.962a.351.351 0 1 1 0 .703h-4.962a.351.351 0 0 1-.352-.352Zm0-2.116a.352.352 0 0 1 .352-.352h6.92a.352.352 0 0 1 0 .703h-6.92a.352.352 0 0 1-.352-.351Zm0 4.122a.352.352 0 0 1 .352-.352h4.152a.351.351 0 1 1 0 .703h-4.152a.352.352 0 0 1-.352-.351Z"/></g><defs><clipPath id="a"><path fill="#fff" d="M0 0h30v30H0z"/></clipPath></defs></svg>