<svg xmlns="http://www.w3.org/2000/svg" viewBox="0 0 24 24" width="50px"><path d="M3 18v3.75A2.25 2.25 0 0 0 5.25 24h4.5a.75.75 0 0 0 .75-.75v-6a.75.75 0 0 1 .75-.75h1.5a.75.75 0 0 1 .75.75v6c0 .414.336.75.75.75h4.5A2.25 2.25 0 0 0 21 21.75V18a.75.75 0 0 0-1.5 0v3.75a.75.75 0 0 1-.75.75h-4.5l.75.75v-6A2.25 2.25 0 0 0 12.75 15h-1.5A2.25 2.25 0 0 0 9 17.25v6l.75-.75h-4.5a.75.75 0 0 1-.75-.75V18A.75.75 0 0 0 3 18m-1.72-.97L11.47 6.841a.75.75 0 0 1 1.06 0l10.19 10.19a.75.75 0 1 0 1.06-1.061L13.591 5.78a2.25 2.25 0 0 0-3.182 0L.219 15.97a.75.75 0 1 0 1.061 1.06m15.97-7.28v-1.5L16.5 9h3.75l-.75-.75v5.25a.75.75 0 0 0 1.5 0V8.25a.75.75 0 0 0-.75-.75H16.5a.75.75 0 0 0-.75.75v1.5a.75.75 0 0 0 1.5 0M16.522.3l-.407.543a1.793 1.793 0 0 0 .279 2.461c.12.102.14.28.045.406l-.411.548a.75.75 0 1 0 1.2.9l.407-.543a1.793 1.793 0 0 0-.279-2.461.295.295 0 0 1-.045-.406l.411-.548a.75.75 0 1 0-1.2-.9m3.75 0-.407.543a1.793 1.793 0 0 0 .279 2.461c.12.102.14.28.045.406l-.411.548a.75.75 0 1 0 1.2.9l.407-.543a1.793 1.793 0 0 0-.279-2.461.295.295 0 0 1-.045-.406l.411-.548a.75.75 0 1 0-1.2-.9"></path></svg>