<svg xmlns="http://www.w3.org/2000/svg" height="16" width="16" viewBox="0 0 24 24" role="presentation" aria-hidden="true" focusable="false"><path d="M.722 21.003h7.5a.75.75 0 0 0 0-1.5h-7.5a.75.75 0 0 0 0 1.5zm13.504-3.37l3.1 5.272a2.25 2.25 0 0 0 3.88-2.278l-.023-.038-3.529-5.989a2.252 2.252 0 0 0-1.932-1.097h-5.073l.67.415-2.584-5.171a2.25 2.25 0 0 0-1.81-1.235 2.228 2.228 0 0 0-2.007.897L.422 14.404a2.25 2.25 0 0 0 3.6 2.7l3.044-4.054-1.27-.114 1.913 3.824a2.25 2.25 0 0 0 2.013 1.243h1.5l-.75-.75v4.5a2.25 2.25 0 0 0 4.5 0v-4.5h-.75v.75h.65v-.75l-.646.38zm1.292-.76a.75.75 0 0 0-.646-.37h-.65a.75.75 0 0 0-.75.75v4.5a.75.75 0 0 1-1.5 0v-4.5a.75.75 0 0 0-.75-.75h-1.5a.75.75 0 0 1-.671-.415l-1.914-3.824a.75.75 0 0 0-1.27-.114l-3.045 4.054a.75.75 0 1 1-1.2-.9l4.5-6a.733.733 0 0 1 .662-.299c.265.024.493.18.61.412l2.584 5.171a.75.75 0 0 0 .671.415h5.073a.75.75 0 0 1 .643.364l3.533 5.995c.01.018.01.018.015.024a.75.75 0 0 1-1.294.76l-3.1-5.273zM9.348 3.752a1.875 1.875 0 1 1-3.75 0 1.875 1.875 0 0 1 3.75 0zm1.5 0a3.375 3.375 0 1 0-6.75 0 3.375 3.375 0 0 0 6.75 0zm10.91-2.667c.418.836.367 1.099-.104 1.72l-.092.121c-.822 1.09-.849 2.036.267 3.524a.75.75 0 0 0 1.2-.9c-.705-.94-.699-1.152-.27-1.72l.09-.119c.789-1.039.953-1.892.25-3.297a.75.75 0 0 0-1.34.671zm-3.75 0c.418.836.367 1.099-.104 1.72l-.092.121c-.822 1.09-.849 2.036.267 3.524a.75.75 0 0 0 1.2-.9c-.705-.94-.699-1.152-.27-1.72l.09-.119c.789-1.039.953-1.892.25-3.297a.75.75 0 0 0-1.34.671zm-3.75 0c.418.836.367 1.099-.104 1.72l-.092.121c-.822 1.09-.849 2.036.267 3.524a.75.75 0 0 0 1.2-.9c-.705-.94-.699-1.152-.27-1.72l.09-.119c.789-1.039.953-1.892.25-3.297a.75.75 0 0 0-1.34.671z"></path></svg>