<svg xmlns="http://www.w3.org/2000/svg" viewBox="0 0 24 24" width="50px"><path d="M3.75 23.25V7.5a.75.75 0 0 0-1.5 0v15.75a.75.75 0 0 0 1.5 0M.22 21.53l2.25 2.25a.75.75 0 0 0 1.06 0l2.25-2.25a.75.75 0 1 0-1.06-1.06l-2.25 2.25h1.06l-2.25-2.25a.75.75 0 0 0-1.06 1.06M5.78 9.22 3.53 6.97a.75.75 0 0 0-1.06 0L.22 9.22a.75.75 0 1 0 1.06 1.06l2.25-2.25H2.47l2.25 2.25a.75.75 0 1 0 1.06-1.06M7.5 3.75h15.75a.75.75 0 0 0 0-1.5H7.5a.75.75 0 0 0 0 1.5M9.22.22 6.97 2.47a.75.75 0 0 0 0 1.06l2.25 2.25a.75.75 0 1 0 1.06-1.06L8.03 2.47v1.06l2.25-2.25A.75.75 0 1 0 9.22.22m12.31 5.56 2.25-2.25a.75.75 0 0 0 0-1.06L21.53.22a.75.75 0 1 0-1.06 1.06l2.25 2.25V2.47l-2.25 2.25a.75.75 0 0 0 1.06 1.06M10.5 13.05v7.2a2.25 2.25 0 0 0 2.25 2.25h6A2.25 2.25 0 0 0 21 20.25v-7.2a.75.75 0 0 0-1.5 0v7.2a.75.75 0 0 1-.75.75h-6a.75.75 0 0 1-.75-.75v-7.2a.75.75 0 0 0-1.5 0m13.252 2.143-6.497-5.85a2.25 2.25 0 0 0-3.01 0l-6.497 5.85a.75.75 0 0 0 1.004 1.114l6.497-5.85a.75.75 0 0 1 1.002 0l6.497 5.85a.75.75 0 0 0 1.004-1.114"></path></svg>